<svg xmlns="http://www.w3.org/2000/svg" width="28" height="28" fill="none">
<path stroke="#40DDB6" stroke-miterlimit="10" stroke-width="2" d="M26.194 21.373c-.992-1-3.396-2.459-4.562-3.047-1.52-.765-1.644-.827-2.838.06-.796.591-1.326 1.12-2.257.921-.932-.198-2.957-1.32-4.73-3.086-1.774-1.768-2.96-3.852-3.159-4.78-.2-.929.338-1.452.925-2.25.826-1.125.763-1.313.057-2.831-.55-1.182-2.052-3.563-3.056-4.55C5.5.75 5.5.937 4.808 1.224a10.01 10.01 0 0 0-1.614.86c-1 .665-1.555 1.217-1.943 2.046-.389.83-.563 2.774 1.442 6.415 2.004 3.641 3.41 5.503 6.32 8.405 2.912 2.903 5.15 4.463 8.422 6.298 4.047 2.267 5.6 1.825 6.432 1.438.832-.388 1.386-.938 2.052-1.938.336-.51.625-1.05.862-1.612.288-.69.476-.69-.587-1.763Z"/>
</svg>