<svg width="21" height="20" viewBox="0 0 21 20" fill="none" xmlns="http://www.w3.org/2000/svg">
<path d="M9.19467 0.927893C9.46221 0.104489 10.6271 0.104491 10.8946 0.927894L12.6532 6.34008C12.7728 6.70832 13.116 6.95763 13.5032 6.95763H19.1939C20.0597 6.95763 20.4196 8.06552 19.7192 8.57441L15.1153 11.9193C14.8021 12.1469 14.671 12.5503 14.7906 12.9185L16.5492 18.3307C16.8167 19.1541 15.8743 19.8388 15.1739 19.33L10.57 15.985C10.2567 15.7575 9.83258 15.7575 9.51934 15.985L4.91545 19.33C4.21502 19.8388 3.27261 19.1541 3.54015 18.3307L5.29867 12.9185C5.41832 12.5503 5.28725 12.1469 4.97401 11.9193L0.370122 8.57441C-0.330307 8.06552 0.0296666 6.95763 0.895444 6.95763H6.58616C6.97334 6.95763 7.3165 6.70832 7.43614 6.34008L9.19467 0.927893Z" fill="#FFA722"/>
</svg>
