<svg xmlns="http://www.w3.org/2000/svg">
	
	<!-- location -->
	<symbol viewBox="0 0 22 32" fill="none" id="location">		
		<path stroke-linecap="round" stroke-linejoin="round" stroke-width="2" d="M11.006 1c-5.521 0-10 4.427-10 9.88 0 6.275 6.667 16.218 9.114 19.652.102.145.235.263.39.344a1.063 1.063 0 0 0 .993 0c.153-.081.287-.199.388-.344 2.448-3.433 9.115-13.372 9.115-19.652 0-5.453-4.48-9.88-10-9.88Z"/>
		<path stroke-linecap="round" stroke-linejoin="round" stroke-width="2" d="M11.006 16a4 4 0 1 0 0-8 4 4 0 0 0 0 8Z"/>
	</symbol>

	<!-- mail -->
	<symbol viewBox="0 0 28 22" fill="none" id="mail">
		<path stroke-linecap="round" stroke-linejoin="round" stroke-width="2" d="M24.506 1h-21a2.5 2.5 0 0 0-2.5 2.5v15a2.5 2.5 0 0 0 2.5 2.5h21a2.5 2.5 0 0 0 2.5-2.5v-15a2.5 2.5 0 0 0-2.5-2.5Z"/>
		<path stroke-linecap="round" stroke-linejoin="round" stroke-width="2" d="m5.006 5 9 7 9-7"/>
	</symbol>

	<!-- time -->
	<symbol viewBox="0 0 17 16" fill="none" id="time">
		<path stroke-miterlimit="10" stroke-width="1.5" d="M8.86.9a7.143 7.143 0 0 0-7.141 7.14 7.143 7.143 0 0 0 7.14 7.141 7.143 7.143 0 0 0 7.142-7.14A7.143 7.143 0 0 0 8.86.898Z"/>
		<path stroke-linecap="round" stroke-linejoin="round" stroke-width="1.5" d="M8.86 3.28v5.355h3.57"/>
	</symbol>

	<!-- instagram -->
	<symbol viewBox="0 0 18 18" id="instagram">
		<path d="M12.105 2.184a3.642 3.642 0 0 1 2.514 1.007 3.376 3.376 0 0 1 1.046 2.421v6.857a3.376 3.376 0 0 1-1.046 2.42 3.642 3.642 0 0 1-2.514 1.008h-7.12a3.642 3.642 0 0 1-2.514-1.007 3.376 3.376 0 0 1-1.046-2.421V5.613A3.376 3.376 0 0 1 2.47 3.19a3.641 3.641 0 0 1 2.514-1.007h7.12Zm0-1.371h-7.12c-2.741 0-4.984 2.16-4.984 4.8v6.856c0 2.64 2.243 4.799 4.984 4.799h7.12c2.741 0 4.984-2.16 4.984-4.8V5.613c0-2.64-2.243-4.799-4.984-4.799Z"/>
		<path d="M13.173 5.613c-.211 0-.417-.06-.593-.174a1.038 1.038 0 0 1-.393-.461.993.993 0 0 1-.061-.595c.041-.199.143-.382.292-.526.15-.144.34-.242.547-.282.207-.04.422-.019.617.059s.362.21.48.379a1.002 1.002 0 0 1-.133 1.299 1.101 1.101 0 0 1-.756.3Zm-4.628.685c.564 0 1.114.16 1.583.462.468.302.833.73 1.049 1.231.215.501.272 1.053.162 1.585a2.713 2.713 0 0 1-.78 1.404 2.883 2.883 0 0 1-1.458.75 2.95 2.95 0 0 1-1.646-.156 2.828 2.828 0 0 1-1.278-1.01 2.671 2.671 0 0 1-.48-1.523c.001-.728.301-1.425.835-1.939a2.908 2.908 0 0 1 2.013-.804Zm0-1.371a4.39 4.39 0 0 0-2.373.693 4.151 4.151 0 0 0-1.573 1.846 3.973 3.973 0 0 0-.243 2.377 4.069 4.069 0 0 0 1.169 2.106 4.326 4.326 0 0 0 2.187 1.126 4.425 4.425 0 0 0 2.468-.234 4.242 4.242 0 0 0 1.917-1.515c.47-.677.72-1.472.72-2.285 0-1.091-.45-2.138-1.25-2.91a4.357 4.357 0 0 0-3.022-1.204Z"/>
	</symbol>

	<!-- facebook -->
	<symbol viewBox="0 0 18 18" id="facebook">
		<path fill-rule="evenodd" d="M17.177 9.09c0-4.544-3.826-8.228-8.544-8.228S.089 4.546.089 9.09c0 4.106 3.124 7.51 7.209 8.128v-5.75h-2.17V9.09h2.17V7.277c0-2.061 1.276-3.201 3.227-3.201.935 0 1.913.16 1.913.16v2.026H11.36c-1.06 0-1.393.634-1.393 1.285V9.09h2.37l-.378 2.379H9.968v5.75c4.085-.618 7.209-4.022 7.209-8.13Z" clip-rule="evenodd"/>
	</symbol>

	<!-- twitter -->
	<symbol viewBox="0 0 19 16" id="twitter">
		<path d="M18.485 2.452a7.698 7.698 0 0 1-2.157.584A3.72 3.72 0 0 0 17.981.99a7.542 7.542 0 0 1-2.386.897A3.782 3.782 0 0 0 12.852.717c-2.076 0-3.756 1.655-3.756 3.696-.001.284.031.567.097.843A10.707 10.707 0 0 1 1.45 1.392a3.65 3.65 0 0 0-.51 1.857c0 1.282.668 2.415 1.678 3.079A3.719 3.719 0 0 1 .91 5.866v.046c0 1.793 1.297 3.284 3.013 3.623-.323.086-.655.13-.99.13a3.6 3.6 0 0 1-.705-.069c.477 1.469 1.866 2.537 3.51 2.567a7.613 7.613 0 0 1-5.561 1.53 10.63 10.63 0 0 0 5.75 1.67c6.917 0 10.696-5.633 10.696-10.52 0-.16-.004-.32-.012-.476a7.572 7.572 0 0 0 1.874-1.915Z"/>
	</symbol>

	<!-- pinterest -->
	<symbol viewBox="0 0 18 18" id="pinterest">
		<path d="M9.167.36C4.373.36.485 4.247.485 9.039c0 3.553 2.14 6.606 5.198 7.95-.024-.604-.004-1.333.15-1.991l1.117-4.73s-.28-.554-.28-1.372c0-1.286.745-2.247 1.675-2.247.79 0 1.17.593 1.17 1.302 0 .794-.507 1.98-.767 3.08-.217.922.462 1.67 1.372 1.67 1.644 0 2.752-2.112 2.752-4.614 0-1.903-1.283-3.324-3.612-3.324-2.632 0-4.275 1.964-4.275 4.156 0 .756.225 1.29.574 1.701.159.19.182.267.124.484-.043.16-.136.543-.179.698-.058.22-.236.298-.434.217-1.213-.496-1.779-1.821-1.779-3.317 0-2.463 2.082-5.42 6.205-5.42 3.314 0 5.496 2.399 5.496 4.971 0 3.405-1.895 5.947-4.686 5.947-.938 0-1.817-.508-2.12-1.081 0 0-.504 1.999-.612 2.386-.182.67-.543 1.337-.872 1.86.8.235 1.628.355 2.461.356 4.794 0 8.681-3.886 8.681-8.678 0-4.792-3.883-8.681-8.677-8.681Z"/>
	</symbol>

	<!-- phone -->
	<symbol viewBox="0 0 28 28" fill="none" id="phone">
  		<path stroke-miterlimit="10" stroke-width="2" d="M26.194 21.373c-.992-1-3.396-2.459-4.562-3.047-1.52-.765-1.644-.827-2.838.06-.796.591-1.326 1.12-2.257.921-.932-.198-2.957-1.32-4.73-3.086-1.774-1.768-2.96-3.852-3.159-4.78-.2-.929.338-1.452.925-2.25.826-1.125.763-1.313.057-2.831-.55-1.182-2.052-3.563-3.056-4.55C5.5.75 5.5.937 4.808 1.224a10.01 10.01 0 0 0-1.614.86c-1 .665-1.555 1.217-1.943 2.046-.389.83-.563 2.774 1.442 6.415 2.004 3.641 3.41 5.503 6.32 8.405 2.912 2.903 5.15 4.463 8.422 6.298 4.047 2.267 5.6 1.825 6.432 1.438.832-.388 1.386-.938 2.052-1.938.336-.51.625-1.05.862-1.612.288-.69.476-.69-.587-1.763Z"/>
	</symbol>

	<!-- arrow down -->
	<symbol viewBox="0 0 21 11" id="arrow-down">
		<path fill-rule="evenodd" d="M19.83.546a1.44 1.44 0 0 1-.014 2.036l-7.494 7.391a2.87 2.87 0 0 1-4.025 0L.803 2.582A1.44 1.44 0 0 1 2.825.532l7.485 7.381L17.794.531a1.44 1.44 0 0 1 2.037.015Z" clip-rule="evenodd"/>
	</symbol>

	<!-- play -->
	<symbol viewBox="0 0 13 21" id="play">
		<path d="m2.44 20.143 10.044-8.532A1.465 1.465 0 0 0 13 10.5a1.453 1.453 0 0 0-.516-1.112L2.44.855C1.48.041 0 .716 0 1.967v17.066c0 1.252 1.48 1.927 2.44 1.11Z"/>
	</symbol>

	<!-- check mark -->
	<symbol viewBox="0 0 27 27" id="check-mark">
  		<path d="M13.5 0C6.05618 0 0 6.05618 0 13.5C0 20.9438 6.05618 27 13.5 27C20.9438 27 27 20.9438 27 13.5C27 6.05618 20.9438 0 13.5 0ZM11.0337 20.2747L5.8024 14.4612L7.34647 13.0716L10.9811 17.11L19.601 6.84476L21.1937 8.17789L11.0337 20.2747Z"/>
	</symbol>

	<!-- star -->
	<symbol viewBox="0 0 15 15" fill="none" id="star">
		<path d="M6.62885 0.867231C7.01136 0.188587 7.98864 0.188585 8.37115 0.86723L9.97321 3.70956C10.1159 3.96274 10.3617 4.14131 10.6466 4.19879L13.8448 4.84411C14.6085 4.99818 14.9105 5.92763 14.3833 6.50113L12.1751 8.90311C11.9784 9.11706 11.8845 9.406 11.9179 9.6947L12.2925 12.9359C12.3819 13.7097 11.5913 14.2842 10.8829 13.96L7.91616 12.6021C7.6519 12.4812 7.3481 12.4812 7.08384 12.6021L4.11707 13.96C3.40871 14.2842 2.61808 13.7097 2.70752 12.9359L3.08211 9.6947C3.11547 9.406 3.02159 9.11706 2.8249 8.90311L0.616749 6.50113C0.0895224 5.92763 0.391516 4.99819 1.15515 4.84411L4.35343 4.19879C4.63831 4.14131 4.88409 3.96274 5.02679 3.70956L6.62885 0.867231Z"/>
	</symbol>

	<!-- profile -->
	<symbol viewBox="0 0 14 15" id="profile">
		<path d="M9.57916 1.51812C8.92428 0.86156 8.00959 0.5 7 0.5C5.98503 0.5 5.06731 0.859373 4.41546 1.51187C3.75653 2.17155 3.43548 3.06811 3.51087 4.03623C3.66028 5.94622 5.22548 7.49996 7 7.49996C8.77452 7.49996 10.337 5.94653 10.4888 4.03685C10.5652 3.07748 10.2421 2.1828 9.57916 1.51812ZM12.9229 14.4999H1.07709C0.922035 14.5018 0.768484 14.4715 0.627605 14.4114C0.486727 14.3512 0.362063 14.2626 0.262685 14.1521C0.0439413 13.9093 -0.0442294 13.5777 0.0210573 13.2424C0.305088 11.7793 1.19151 10.5503 2.58474 9.68745C3.82249 8.92151 5.39038 8.49995 7 8.49995C8.60962 8.49995 10.1775 8.92183 11.4153 9.68745C12.8085 10.5499 13.6949 11.779 13.9789 13.2421C14.0442 13.5774 13.9561 13.909 13.7373 14.1518C13.638 14.2624 13.5133 14.351 13.3724 14.4112C13.2316 14.4715 13.078 14.5018 12.9229 14.4999Z"/>
	</symbol>

	<!-- tag -->
	<symbol viewBox="0 0 13 14" id="tag">
		<path d="M12.6227 0.88303C12.5024 0.761343 12.3591 0.664809 12.2012 0.59905C12.0432 0.533291 11.8737 0.499622 11.7026 0.500003H8.13548C7.90149 0.500439 7.67711 0.593132 7.51103 0.757966L0.379983 7.88748C0.136657 8.1313 0 8.4617 0 8.80616C0 9.15063 0.136657 9.48102 0.379983 9.72484L3.77503 13.1199C4.01892 13.3633 4.34942 13.5 4.69401 13.5C5.0386 13.5 5.36911 13.3633 5.613 13.1199L12.7411 5.99324C12.9063 5.82743 12.9993 5.60311 13 5.36908V1.79997C13.001 1.62976 12.9682 1.46103 12.9035 1.30361C12.8387 1.14619 12.7433 1.00323 12.6227 0.88303ZM10.2143 4.2142C10.0306 4.2142 9.85112 4.15974 9.69842 4.05771C9.54572 3.95568 9.4267 3.81066 9.35642 3.64099C9.28614 3.47132 9.26775 3.28462 9.30358 3.1045C9.33941 2.92438 9.42785 2.75893 9.55771 2.62907C9.68757 2.49921 9.85302 2.41077 10.0331 2.37494C10.2133 2.33911 10.4 2.3575 10.5696 2.42778C10.7393 2.49806 10.8843 2.61708 10.9864 2.76978C11.0884 2.92247 11.1429 3.102 11.1429 3.28565C11.1429 3.53192 11.045 3.7681 10.8709 3.94223C10.6967 4.11637 10.4606 4.2142 10.2143 4.2142Z"/>
	</symbol>

</svg>