<svg xmlns="http://www.w3.org/2000/svg">
	<symbol viewBox="0 0 18 24" id="location">
		<path fill-rule="evenodd" d="M0 8.022C0 3.55 3.86 0 8.515 0c4.654 0 8.515 3.549 8.515 8.022 0 2.525-1.39 5.66-2.922 8.386-1.555 2.763-3.347 5.253-4.306 6.53a1.597 1.597 0 0 1-1.287.643 1.611 1.611 0 0 1-1.289-.646c-.96-1.277-2.75-3.767-4.304-6.53C1.39 13.68 0 10.546 0 8.023ZM8.515 1.5C4.595 1.5 1.5 4.468 1.5 8.022c0 2.095 1.2 4.928 2.73 7.648 1.508 2.682 3.256 5.114 4.197 6.365l.003.005c.009.011.02.022.035.029a.11.11 0 0 0 .134-.029l.004-.005c.941-1.25 2.689-3.681 4.197-6.363 1.53-2.72 2.73-5.553 2.73-7.65 0-3.554-3.095-6.522-7.015-6.522Z" clip-rule="evenodd"/>
		<path fill-rule="evenodd" d="M8.515 6.936a2.356 2.356 0 1 0 0 4.711 2.356 2.356 0 0 0 0-4.711ZM4.66 9.292a3.856 3.856 0 1 1 7.712 0 3.856 3.856 0 0 1-7.712 0Z" clip-rule="evenodd"/>
	</symbol>
	<symbol viewBox="0 0 23 18" id="mail">
		<path fill-rule="evenodd" d="M3.222 2.025c-.658 0-1.192.534-1.192 1.192v11.647c0 .658.534 1.191 1.192 1.191h16.306c.658 0 1.191-.533 1.191-1.191V3.217c0-.658-.533-1.192-1.191-1.192H3.222ZM.53 3.217A2.691 2.691 0 0 1 3.222.525h16.306a2.691 2.691 0 0 1 2.691 2.692v11.647a2.691 2.691 0 0 1-2.691 2.691H3.222A2.691 2.691 0 0 1 .53 14.864V3.217Z" clip-rule="evenodd"/>
		<path fill-rule="evenodd" d="M3.794 3.921a.75.75 0 0 1 1.052-.131l6.528 5.077 6.528-5.077a.75.75 0 1 1 .921 1.184l-6.988 5.435a.75.75 0 0 1-.921 0L3.925 4.974a.75.75 0 0 1-.131-1.053Z" clip-rule="evenodd"/>
	</symbol>
	<symbol viewBox="0 0 16 16" id="time">
		<path fill-rule="evenodd" d="M.219 8.04A7.893 7.893 0 0 1 8.109.15a7.893 7.893 0 0 1 7.892 7.89 7.893 7.893 0 0 1-7.891 7.891 7.893 7.893 0 0 1-7.891-7.89Zm7.89-6.39a6.393 6.393 0 0 0-6.39 6.39 6.393 6.393 0 0 0 6.39 6.391 6.393 6.393 0 0 0 6.392-6.39A6.393 6.393 0 0 0 8.11 1.648Z" clip-rule="evenodd"/>
		<path fill-rule="evenodd" d="M8.11 2.53a.75.75 0 0 1 .75.75v4.605h2.82a.75.75 0 1 1 0 1.5H8.11a.75.75 0 0 1-.75-.75V3.28a.75.75 0 0 1 .75-.75Z" clip-rule="evenodd"/>
	</symbol>
	<symbol viewBox="0 0 18 18" id="instagram">
		<path d="M12.105 2.184a3.642 3.642 0 0 1 2.514 1.007 3.376 3.376 0 0 1 1.046 2.421v6.857a3.376 3.376 0 0 1-1.046 2.42 3.642 3.642 0 0 1-2.514 1.008h-7.12a3.642 3.642 0 0 1-2.514-1.007 3.376 3.376 0 0 1-1.046-2.421V5.613A3.376 3.376 0 0 1 2.47 3.19a3.641 3.641 0 0 1 2.514-1.007h7.12Zm0-1.371h-7.12c-2.741 0-4.984 2.16-4.984 4.8v6.856c0 2.64 2.243 4.799 4.984 4.799h7.12c2.741 0 4.984-2.16 4.984-4.8V5.613c0-2.64-2.243-4.799-4.984-4.799Z"/>
		<path d="M13.173 5.613c-.211 0-.417-.06-.593-.174a1.038 1.038 0 0 1-.393-.461.993.993 0 0 1-.061-.595c.041-.199.143-.382.292-.526.15-.144.34-.242.547-.282.207-.04.422-.019.617.059s.362.21.48.379a1.002 1.002 0 0 1-.133 1.299 1.101 1.101 0 0 1-.756.3Zm-4.628.685c.564 0 1.114.16 1.583.462.468.302.833.73 1.049 1.231.215.501.272 1.053.162 1.585a2.713 2.713 0 0 1-.78 1.404 2.883 2.883 0 0 1-1.458.75 2.95 2.95 0 0 1-1.646-.156 2.828 2.828 0 0 1-1.278-1.01 2.671 2.671 0 0 1-.48-1.523c.001-.728.301-1.425.835-1.939a2.908 2.908 0 0 1 2.013-.804Zm0-1.371a4.39 4.39 0 0 0-2.373.693 4.151 4.151 0 0 0-1.573 1.846 3.973 3.973 0 0 0-.243 2.377 4.069 4.069 0 0 0 1.169 2.106 4.326 4.326 0 0 0 2.187 1.126 4.425 4.425 0 0 0 2.468-.234 4.242 4.242 0 0 0 1.917-1.515c.47-.677.72-1.472.72-2.285 0-1.091-.45-2.138-1.25-2.91a4.357 4.357 0 0 0-3.022-1.204Z"/>
	</symbol>
	<symbol viewBox="0 0 18 18" id="facebook">
		<path fill-rule="evenodd" d="M17.177 9.09c0-4.544-3.826-8.228-8.544-8.228S.089 4.546.089 9.09c0 4.106 3.124 7.51 7.209 8.128v-5.75h-2.17V9.09h2.17V7.277c0-2.061 1.276-3.201 3.227-3.201.935 0 1.913.16 1.913.16v2.026H11.36c-1.06 0-1.393.634-1.393 1.285V9.09h2.37l-.378 2.379H9.968v5.75c4.085-.618 7.209-4.022 7.209-8.13Z" clip-rule="evenodd"/>
	</symbol>
	<symbol viewBox="0 0 19 16" id="twitter">
		<path d="M18.485 2.452a7.698 7.698 0 0 1-2.157.584A3.72 3.72 0 0 0 17.981.99a7.542 7.542 0 0 1-2.386.897A3.782 3.782 0 0 0 12.852.717c-2.076 0-3.756 1.655-3.756 3.696-.001.284.031.567.097.843A10.707 10.707 0 0 1 1.45 1.392a3.65 3.65 0 0 0-.51 1.857c0 1.282.668 2.415 1.678 3.079A3.719 3.719 0 0 1 .91 5.866v.046c0 1.793 1.297 3.284 3.013 3.623-.323.086-.655.13-.99.13a3.6 3.6 0 0 1-.705-.069c.477 1.469 1.866 2.537 3.51 2.567a7.613 7.613 0 0 1-5.561 1.53 10.63 10.63 0 0 0 5.75 1.67c6.917 0 10.696-5.633 10.696-10.52 0-.16-.004-.32-.012-.476a7.572 7.572 0 0 0 1.874-1.915Z"/>
	</symbol>
	<symbol viewBox="0 0 18 18" id="pinterest">
		<path d="M9.167.36C4.373.36.485 4.247.485 9.039c0 3.553 2.14 6.606 5.198 7.95-.024-.604-.004-1.333.15-1.991l1.117-4.73s-.28-.554-.28-1.372c0-1.286.745-2.247 1.675-2.247.79 0 1.17.593 1.17 1.302 0 .794-.507 1.98-.767 3.08-.217.922.462 1.67 1.372 1.67 1.644 0 2.752-2.112 2.752-4.614 0-1.903-1.283-3.324-3.612-3.324-2.632 0-4.275 1.964-4.275 4.156 0 .756.225 1.29.574 1.701.159.19.182.267.124.484-.043.16-.136.543-.179.698-.058.22-.236.298-.434.217-1.213-.496-1.779-1.821-1.779-3.317 0-2.463 2.082-5.42 6.205-5.42 3.314 0 5.496 2.399 5.496 4.971 0 3.405-1.895 5.947-4.686 5.947-.938 0-1.817-.508-2.12-1.081 0 0-.504 1.999-.612 2.386-.182.67-.543 1.337-.872 1.86.8.235 1.628.355 2.461.356 4.794 0 8.681-3.886 8.681-8.678 0-4.792-3.883-8.681-8.677-8.681Z"/>
	</symbol>
	<symbol viewBox="0 0 44 44" id="phone">
		<path d="M44,35h0a3,3,0,0,0-.88-2.12,2.94,2.94,0,0,0-.53-.42l-8.47-6.58A3,3,0,0,0,32,25a3,3,0,0,0-1.8.62L27.82,28h0a2,2,0,0,1-3.12-.18l0,.06a38.2,38.2,0,0,1-8.53-8.5l.07,0A2,2,0,0,1,16,16.13h0l2.35-2.33A2.94,2.94,0,0,0,19,12a3,3,0,0,0-.88-2.12L11.54,1.41a3.06,3.06,0,0,0-.41-.53A3,3,0,0,0,9,0C5,0,0,4.7,0,10.5A10.45,10.45,0,0,0,1,15l0,0A63.52,63.52,0,0,0,29,43l0,0a10.45,10.45,0,0,0,4.48,1C39.3,44,44,39,44,35ZM33.5,42a8.43,8.43,0,0,1-3.63-.82,1.89,1.89,0,0,0-.33-.12A61.34,61.34,0,0,1,2.95,14.47a2,2,0,0,0-.13-.34A8.43,8.43,0,0,1,2,10.5C2,5.65,6.25,2,9,2a1,1,0,0,1,.71.29,1.11,1.11,0,0,1,.14.18l.11.16,6.59,8.47.16.19A1,1,0,0,1,17,12a.93.93,0,0,1-.14.5l-2.23,2.21,0,0a4,4,0,0,0-.17,5.67l.08.12a40.13,40.13,0,0,0,9,8.94l.08.06a4,4,0,0,0,5.57,0l.11-.11,2.24-2.26A.93.93,0,0,1,32,27a1,1,0,0,1,.71.29l.19.17L41.34,34l.17.12a1,1,0,0,1,.18.13A1,1,0,0,1,42,35a2,2,0,0,0,0,.2C41.84,37.94,38.24,42,33.5,42Z"/>
	</symbol>
</svg>